<?xml version="1.0" encoding="UTF-8" standalone="no"?>
<svg
   xmlns:dc="http://purl.org/dc/elements/1.1/"
   xmlns:cc="http://creativecommons.org/ns#"
   xmlns:rdf="http://www.w3.org/1999/02/22-rdf-syntax-ns#"
   xmlns:svg="http://www.w3.org/2000/svg"
   xmlns="http://www.w3.org/2000/svg"
   xmlns:sodipodi="http://sodipodi.sourceforge.net/DTD/sodipodi-0.dtd"
   xmlns:inkscape="http://www.inkscape.org/namespaces/inkscape"
   class="img-fluid"
   id="outputsvg"
   width="457.76193"
   height="269.68515"
   viewBox="0 0 4577.6193 2696.8515"
   version="1.1"
   sodipodi:docname="haj.svg"
   inkscape:version="0.92.5 (2060ec1f9f, 2020-04-08)">
  <title
     id="title909">Blåhaj</title>
  <metadata
     id="metadata31">
    <rdf:RDF>
      <cc:Work
         rdf:about="">
        <dc:format>image/svg+xml</dc:format>
        <dc:type
           rdf:resource="http://purl.org/dc/dcmitype/StillImage" />
        <dc:title>Blåhaj</dc:title>
        <dc:date>2021-12-19</dc:date>
        <dc:creator>
          <cc:Agent>
            <dc:title>Jana Marie Hemsing</dc:title>
          </cc:Agent>
        </dc:creator>
        <dc:rights>
          <cc:Agent>
            <dc:title></dc:title>
          </cc:Agent>
        </dc:rights>
        <cc:license
           rdf:resource="http://creativecommons.org/licenses/by/4.0/" />
      </cc:Work>
      <cc:License
         rdf:about="http://creativecommons.org/licenses/by/4.0/">
        <cc:permits
           rdf:resource="http://creativecommons.org/ns#Reproduction" />
        <cc:permits
           rdf:resource="http://creativecommons.org/ns#Distribution" />
        <cc:requires
           rdf:resource="http://creativecommons.org/ns#Notice" />
        <cc:requires
           rdf:resource="http://creativecommons.org/ns#Attribution" />
        <cc:permits
           rdf:resource="http://creativecommons.org/ns#DerivativeWorks" />
      </cc:License>
    </rdf:RDF>
  </metadata>
  <defs
     id="defs29" />
  <sodipodi:namedview
     pagecolor="#ffffff"
     bordercolor="#666666"
     borderopacity="1"
     objecttolerance="10"
     gridtolerance="10"
     guidetolerance="10"
     inkscape:pageopacity="0"
     inkscape:pageshadow="2"
     inkscape:window-width="2505"
     inkscape:window-height="1413"
     id="namedview27"
     showgrid="false"
     inkscape:zoom="0.70710678"
     inkscape:cx="-43.942389"
     inkscape:cy="-127.94904"
     inkscape:window-x="55"
     inkscape:window-y="27"
     inkscape:window-maximized="1"
     inkscape:current-layer="layer1"
     showguides="false"
     fit-margin-top="0"
     fit-margin-left="0"
     fit-margin-right="0"
     fit-margin-bottom="0" />
  <g
     inkscape:groupmode="layer"
     id="layer1"
     inkscape:label="outline"
     style="display:inline"
     transform="translate(69.48819,83.58207)">
    <g
       id="l5AWPjcSqIvtzW56WHfUJiL"
       style="fill:none;stroke:#fcffff;stroke-opacity:1">
      <g
         id="g3"
         style="fill:none;stroke:#fcffff;stroke-opacity:1" />
    </g>
    <g
       id="l7gqvnfAtTYyyCmS4KV8Ml7"
       style="fill:none;stroke:#fcffff;stroke-opacity:1">
      <g
         id="g9"
         style="fill:none;stroke:#fcffff;stroke-opacity:1" />
    </g>
    <g
       id="l4U4jWMdxxVUlV7IeMH9KRP"
       style="fill:none;stroke:#fcffff;stroke-opacity:1">
      <g
         id="g15"
         style="fill:none;stroke:#fcffff;stroke-opacity:1">
        <path
           id="pI17HgRze"
           d="m 685,2051 c -95.97275,1.6378 -171.30115,-52.6961 -235,-85 -138.86908,-149.5059 422.10526,127.2783 235,85 z m 1760,38 c -44,-53 -61,-95 -45,-114 17,-21 91,-41 240,-65 69,-12 139,-23 155,-26 17,-3 25,-2 19,3 -6,4 -13,16 -17,25 -3,9 -30,29 -59,44 -108,54 -249,137 -257,151 -6,12 -13,8 -36,-18 z m -1120,200 c -33,-5 -77,-11 -99,-14 -54,-8 -207,-44 -231,-54 -11,-4 -54,-23 -95,-41 -41,-17 -100,-41 -130,-52 -30,-11 -67,-26 -83,-35 -16,-8 -39,-12 -52,-9 -17,4 -27,0 -39,-18 -13,-21 -23,-24 -58,-23 -41,2 -43,1 -46,-29 -3,-26 -10,-35 -43,-49 -21,-10 -39,-25 -39,-33 0,-12 -3,-12 -15,-2 -18,15 -45,6 -45,-14 0,-9 -7,-12 -19,-9 -15,4 -21,-3 -30,-30 -9,-26 -35,-53 -97,-102 -71,-57 -114,-105 -114,-129 583.28884,298.7288 1432.964,177.5448 1813,584 l 37,45 -33,6 c -53,11 -517,17 -582,8 z m 1275,224 c -118,-12 -360,-64 -385,-83 -5,-4 -35,-15 -65,-25 -68,-22 -148,-66 -179,-99 -16.7678,-13.7903 -32.3483,-39.5964 -49.3483,-39.5964 C 1700.9557,1582.5376 345.5298,2061.6471 92,1656 77.6875,1634.8125 61.1875,1606.2812 48.28125,1579.9375 33.28125,1547 26,1521 25,1450 c 0,-75 4,-92 30,-143 37,-73 102,-133 202,-185 207,-107 413,-150 1028,-212 346,-35 583,-78 641,-117 20.3125,-16.84375 61.8047,-112.12754 66.5,-124.25 C 1995.9375,659.875 2136,371 2179,305 2255,190 2389,61 2463,32 c 69,-26 114,-28 145,-6 28,19 28,52 1,112 -31,67 -56,157 -90,317 -49,231 -54,322 -19,410 33,86 124,150 245,173 33,7 95,19 137,27 82,16 165,19 218,8 23,-4 57,-30 109,-80 98,-96 143,-127 171,-118 20,6 22,12 16,59 -3,28 -8,66 -12,85 l -7,34 99,-6 c 115,-7 182,-25 244,-66 56,-38 135,-112 180,-171 19,-24 57,-69 84,-100 26,-30 67.221,-83.32583 89,-115 23.3318,-34.19458 57.8363,-76.99172 81,-108 31.5243,-39.12738 145,-165 167,-172 30,-10 56,3 80,41 20,32 12.487,63.3068 9,82 -8.5622,37.61466 -26.9071,76.72963 -40,107 -9.0312,19.96875 -35,79 -61,126 -38.1968,76.70823 -84.1172,153.62386 -114,223 -35,83 -37,94 -31,157 7,83 55,194 125,288 56,76 91,138 91,163 0,25 -47,68 -73,67 -45,-1 -119,-42 -338,-186 -44,-29 -85,-53 -92,-53 -6,0 -30,17 -53,38 -71,65 -193,162 -232,183 -20,12 -48,29 -62,39 -14,9 -32,20 -40,23 -8,4 -33,19 -55,32 -120,76 -427,201 -540,220 -58,10 -99.6404,23.5637 -99.6404,39.5637 0,16 -2.3596,19.4363 -148.3596,40.4363 -130,20 -207,41 -207,58 0,7 13,28 29,47 23,28 24.0665,36.6742 15.0665,51.6742 -9,16 -13.6235,14.1611 16.3765,40.1611 101,86 233.557,154.1647 364.557,178.1647 114,21 195,63 195,100 0,24 -29,54 -65,68 -70,26 -263,39 -395,25 z"
           style="fill:none;stroke:#fcffff;stroke-width:188.97637939;stroke-miterlimit:4;stroke-dasharray:none;stroke-opacity:1"
           inkscape:connector-curvature="0"
           sodipodi:nodetypes="ccccccccccccccccsccccccssscccccccccccccccccccccccccccccccccccccccccccccccccsccsccccccscsccccscc" />
      </g>
    </g>
  </g>
  <g
     inkscape:groupmode="layer"
     id="layer2"
     inkscape:label="haj"
     style="display:inline"
     transform="translate(69.48819,83.58207)">
    <g
       style="fill:#467f8f"
       id="g871">
      <g
         id="g869">
        <path
           sodipodi:nodetypes="ccccsccccscccccccccsccccccccccccccccccccccccccccsccsccccccscsccccscccccc"
           inkscape:connector-curvature="0"
           d="m 2600,2513 c -118,-12 -360,-64 -385,-83 -5,-4 -35,-15 -65,-25 -68,-22 -148,-66 -179,-99 -16.7678,-13.7903 -32.3483,-39.5964 -49.3483,-39.5964 C 1874.6517,2266.4036 1801,2174 1800,2104 c 0,-35 -16,-52 -75,-82 -80,-40 -81,-40 -575,-82 -134,-12 -151,-16 -290,-65 -58,-20 -125,-43 -150,-50 -25,-7 -68,-20 -94,-29 -27,-9 -112,-28 -190,-42 C 86,1695 118.33146,1696.9289 92,1656 77.6875,1634.8125 61.1875,1606.2812 48.28125,1579.9375 33.28125,1547 26,1521 25,1450 c 0,-75 4,-92 30,-143 37,-73 102,-133 202,-185 207,-107 413,-150 1028,-212 346,-35 583,-78 641,-117 20.3125,-16.84375 61.8047,-112.12754 66.5,-124.25 C 1995.9375,659.875 2136,371 2179,305 2255,190 2389,61 2463,32 c 69,-26 114,-28 145,-6 28,19 28,52 1,112 -31,67 -56,157 -90,317 -49,231 -54,322 -19,410 33,86 124,150 245,173 33,7 95,19 137,27 82,16 165,19 218,8 23,-4 57,-30 109,-80 98,-96 143,-127 171,-118 20,6 22,12 16,59 -3,28 -8,66 -12,85 l -7,34 99,-6 c 115,-7 182,-25 244,-66 56,-38 135,-112 180,-171 19,-24 57,-69 84,-100 26,-30 67.221,-83.32583 89,-115 23.3318,-34.19458 57.8363,-76.99172 81,-108 31.5243,-39.12738 145,-165 167,-172 30,-10 56,3 80,41 20,32 12.487,63.3068 9,82 -8.5622,37.61466 -26.9071,76.72963 -40,107 -9.0312,19.96875 -35,79 -61,126 -38.1968,76.70823 -84.1172,153.62386 -114,223 -35,83 -37,94 -31,157 7,83 55,194 125,288 56,76 91,138 91,163 0,25 -47,68 -73,67 -45,-1 -119,-42 -338,-186 -44,-29 -85,-53 -92,-53 -6,0 -30,17 -53,38 -71,65 -193,162 -232,183 -20,12 -48,29 -62,39 -14,9 -32,20 -40,23 -8,4 -33,19 -55,32 -120,76 -427,201 -540,220 -58,10 -99.6404,23.5637 -99.6404,39.5637 0,16 -2.3596,19.4363 -148.3596,40.4363 -130,20 -207,41 -207,58 0,7 13,28 29,47 23,28 24.0665,36.6742 15.0665,51.6742 -9,16 -13.6235,14.1611 16.3765,40.1611 101,86 233.557,154.1647 364.557,178.1647 114,21 195,63 195,100 0,24 -29,54 -65,68 -70,26 -263,39 -395,25 z M 938,1732 c 6,-18 -64,-44 -99,-37 -42,9 -45,23 -7,40 39,17 100,16 106,-3 z"
           id="path867" />
      </g>
    </g>
    <g
       style="fill:#dbddda"
       id="g881">
      <g
         id="g879">
        <path
           d="m 1325,2289 c -33,-5 -77,-11 -99,-14 -54,-8 -207,-44 -231,-54 -11,-4 -54,-23 -95,-41 -41,-17 -100,-41 -130,-52 -30,-11 -67,-26 -83,-35 -16,-8 -39,-12 -52,-9 -17,4 -27,0 -39,-18 -13,-21 -23,-24 -58,-23 -41,2 -43,1 -46,-29 -3,-26 -10,-35 -43,-49 -21,-10 -39,-25 -39,-33 0,-12 -3,-12 -15,-2 -18,15 -45,6 -45,-14 0,-9 -7,-12 -19,-9 -15,4 -21,-3 -30,-30 -9,-26 -35,-53 -97,-102 -71,-57 -114,-105 -114,-129 0,-3 17,2 38,11 37,15 64,21 328,67 78,14 163,33 190,42 26,9 69,22 94,29 25,7 92,30 150,50 139,49 156,53 290,65 494,42 495,42 575,82 59,30 75,47 75,82 1,40 28,100 73,156 l 37,45 -33,6 c -53,11 -517,17 -582,8 z"
           id="path873"
           inkscape:connector-curvature="0" />
        <path
           d="m 2445,2089 c -44,-53 -61,-95 -45,-114 17,-21 91,-41 240,-65 69,-12 139,-23 155,-26 17,-3 25,-2 19,3 -6,4 -13,16 -17,25 -3,9 -30,29 -59,44 -108,54 -249,137 -257,151 -6,12 -13,8 -36,-18 z"
           id="path875"
           inkscape:connector-curvature="0" />
        <path
           sodipodi:nodetypes="cccccccc"
           inkscape:connector-curvature="0"
           d="m 862,1723 c 3,-42 6,-48 27,-51 12,-2 32.32704,6.9466 46.32704,10.9466 21,5 25.67296,2.0534 22.67296,40.0534 l -3,42 -48,3 -48,3 z"
           id="path877" />
      </g>
    </g>
    <g
       style="fill:#eac4bf"
       id="g891">
      <g
         id="g889">
        <path
           d="m 685,2051 c -3,-2 -19,-4 -37,-3 -25,1 -29,-2 -18,-9 11,-8 8,-9 -12,-6 -16,2 -28,0 -28,-5 0,-5 -4,-6 -10,-3 -5,3 -10,2 -10,-3 0,-14 -35,-21 -53,-11 -11,7 -17,4 -21,-8 -3,-10 -24,-27 -46,-37 -45,-22 -45,-22 -25,-42 10,-10 15,-11 15,-4 0,7 6,10 14,7 7,-3 19,0 25,6 8,8 11,7 11,-3 0,-10 3,-11 11,-3 6,6 18,9 25,6 8,-3 14,1 14,11 0,18 15,21 25,5 5,-7 14,-4 26,7 17,16 19,16 19,1 0,-10 5,-17 11,-17 6,0 9,6 6,14 -8,21 104,29 119,8 9,-13 12,-9 18,20 3,19 4,42 0,51 -3,10 1,17 13,20 10,3 -6,4 -35,4 -29,-1 -55,-3 -57,-6 z"
           id="path883"
           inkscape:connector-curvature="0" />
        <path
           d="m 834,2049 c -15,-25 31,-40 53,-18 9,9 20,9 43,-1 32,-13 59,-3 46,19 -8,13 -134,13 -142,0 z"
           id="path885"
           inkscape:connector-curvature="0" />
        <path
           d="m 1034,2044 c 3,-9 6,-17 6,-20 0,-2 6,-1 14,2 18,7 9,34 -11,34 -10,0 -13,-6 -9,-16 z"
           id="path887"
           inkscape:connector-curvature="0" />
      </g>
    </g>
    <g
       style="fill:#523b3a"
       id="g897">
      <g
         id="g895">
        <path
           d="m 802,1765 c -76,-33 -52,-95 40,-103 98,-8 177,50 133,98 -14,16 -30,20 -79,20 -34,-1 -76,-7 -94,-15 z m 123,-45 c 0,-22 -29,-18 -33,3 -3,14 1,18 15,15 10,-2 18,-10 18,-18 z"
           id="path893"
           inkscape:connector-curvature="0" />
      </g>
    </g>
    <g
       style="fill:#201e22"
       id="g903">
      <g
         id="g901">
        <path
           sodipodi:nodetypes="cccccc"
           inkscape:connector-curvature="0"
           d="m 833,1739 c -60,-17 -48,-45 22,-50 38,-3 40,-2 37,24 -3,31 20.33458,33.0463 35.33458,6.0463 7,-13 11.66542,-9.0463 17.66542,0.9537 17,27 -46,38 -112,19 z"
           id="path899" />
      </g>
    </g>
  </g>
</svg>
